<mxfile host="app.diagrams.net" modified="2022-02-15T20:40:45.429Z" agent="5.0 (Macintosh; Intel Mac OS X 10_15_7) AppleWebKit/537.36 (KHTML, like Gecko) Chrome/98.0.4758.80 Safari/537.36" etag="jTSbJZuBmwCQqDUAnQgB" version="16.5.6" type="github">
  <diagram id="UW2Let9FedXbePVIwO7e" name="Page-1">
    <mxGraphModel dx="1453" dy="1285" grid="1" gridSize="15" guides="1" tooltips="1" connect="1" arrows="1" fold="1" page="1" pageScale="1" pageWidth="1400" pageHeight="850" math="0" shadow="1">
      <root>
        <mxCell id="0" />
        <mxCell id="1" parent="0" />
        <mxCell id="GJOkn2DgcXXOF6PlL42Y-3" value="SA-RNI Service" style="swimlane;rounded=1;dashed=1;fillColor=#fad7ac;strokeColor=#b46504;swimlaneFillColor=#CDBFC7;gradientColor=#ffffff;" parent="1" vertex="1">
          <mxGeometry x="871" y="60" width="285" height="495" as="geometry" />
        </mxCell>
        <mxCell id="GJOkn2DgcXXOF6PlL42Y-16" value="GET device-config" style="swimlane;fontStyle=0;childLayout=stackLayout;horizontal=1;startSize=30;horizontalStack=0;resizeParent=1;resizeParentMax=0;resizeLast=0;collapsible=1;marginBottom=0;rounded=1;" parent="GJOkn2DgcXXOF6PlL42Y-3" vertex="1">
          <mxGeometry x="22.5" y="45" width="232.5" height="90" as="geometry" />
        </mxCell>
        <mxCell id="GJOkn2DgcXXOF6PlL42Y-17" value="RQ: deviceID+InputID" style="text;strokeColor=none;fillColor=none;align=left;verticalAlign=middle;spacingLeft=4;spacingRight=4;overflow=hidden;points=[[0,0.5],[1,0.5]];portConstraint=eastwest;rotatable=0;rounded=1;" parent="GJOkn2DgcXXOF6PlL42Y-16" vertex="1">
          <mxGeometry y="30" width="232.5" height="30" as="geometry" />
        </mxCell>
        <mxCell id="GJOkn2DgcXXOF6PlL42Y-18" value="RS: (*) cat:high; psi:56; dur: 5 mins" style="text;strokeColor=none;fillColor=none;align=left;verticalAlign=middle;spacingLeft=4;spacingRight=4;overflow=hidden;points=[[0,0.5],[1,0.5]];portConstraint=eastwest;rotatable=0;rounded=1;" parent="GJOkn2DgcXXOF6PlL42Y-16" vertex="1">
          <mxGeometry y="60" width="232.5" height="30" as="geometry" />
        </mxCell>
        <mxCell id="GJOkn2DgcXXOF6PlL42Y-41" value="GET device-constraint" style="swimlane;fontStyle=0;childLayout=stackLayout;horizontal=1;startSize=30;horizontalStack=0;resizeParent=1;resizeParentMax=0;resizeLast=0;collapsible=1;marginBottom=0;rounded=1;" parent="GJOkn2DgcXXOF6PlL42Y-3" vertex="1">
          <mxGeometry x="22.5" y="251" width="232.5" height="90" as="geometry" />
        </mxCell>
        <mxCell id="GJOkn2DgcXXOF6PlL42Y-42" value="RQ: deviceID+InputID" style="text;strokeColor=none;fillColor=none;align=left;verticalAlign=middle;spacingLeft=4;spacingRight=4;overflow=hidden;points=[[0,0.5],[1,0.5]];portConstraint=eastwest;rotatable=0;rounded=1;" parent="GJOkn2DgcXXOF6PlL42Y-41" vertex="1">
          <mxGeometry y="30" width="232.5" height="30" as="geometry" />
        </mxCell>
        <mxCell id="GJOkn2DgcXXOF6PlL42Y-43" value="RS: (*) threshold+duration - ranges" style="text;strokeColor=none;fillColor=none;align=left;verticalAlign=middle;spacingLeft=4;spacingRight=4;overflow=hidden;points=[[0,0.5],[1,0.5]];portConstraint=eastwest;rotatable=0;rounded=1;" parent="GJOkn2DgcXXOF6PlL42Y-41" vertex="1">
          <mxGeometry y="60" width="232.5" height="30" as="geometry" />
        </mxCell>
        <mxCell id="GJOkn2DgcXXOF6PlL42Y-67" value="POST edit-threshold" style="swimlane;fontStyle=0;childLayout=stackLayout;horizontal=1;startSize=30;horizontalStack=0;resizeParent=1;resizeParentMax=0;resizeLast=0;collapsible=1;marginBottom=0;rounded=1;" parent="GJOkn2DgcXXOF6PlL42Y-3" vertex="1">
          <mxGeometry x="22.5" y="362" width="232.5" height="120" as="geometry" />
        </mxCell>
        <mxCell id="GJOkn2DgcXXOF6PlL42Y-68" value="RQ: deviceID+InputID" style="text;strokeColor=none;fillColor=none;align=left;verticalAlign=middle;spacingLeft=4;spacingRight=4;overflow=hidden;points=[[0,0.5],[1,0.5]];portConstraint=eastwest;rotatable=0;rounded=1;" parent="GJOkn2DgcXXOF6PlL42Y-67" vertex="1">
          <mxGeometry y="30" width="232.5" height="30" as="geometry" />
        </mxCell>
        <mxCell id="GJOkn2DgcXXOF6PlL42Y-69" value="Body:cat (*): threshold+duration - value" style="text;strokeColor=none;fillColor=none;align=left;verticalAlign=middle;spacingLeft=4;spacingRight=4;overflow=hidden;points=[[0,0.5],[1,0.5]];portConstraint=eastwest;rotatable=0;rounded=1;" parent="GJOkn2DgcXXOF6PlL42Y-67" vertex="1">
          <mxGeometry y="60" width="232.5" height="30" as="geometry" />
        </mxCell>
        <mxCell id="GJOkn2DgcXXOF6PlL42Y-70" value="RS: Submitted/Failed" style="text;strokeColor=none;fillColor=none;align=left;verticalAlign=middle;spacingLeft=4;spacingRight=4;overflow=hidden;points=[[0,0.5],[1,0.5]];portConstraint=eastwest;rotatable=0;rounded=1;" parent="GJOkn2DgcXXOF6PlL42Y-67" vertex="1">
          <mxGeometry y="90" width="232.5" height="30" as="geometry" />
        </mxCell>
        <mxCell id="GJOkn2DgcXXOF6PlL42Y-1" value="U I" style="swimlane;rounded=1;dashed=1;fillColor=#dae8fc;strokeColor=#6c8ebf;gradientColor=#ffffff;swimlaneFillColor=#D5E8D4;" parent="1" vertex="1">
          <mxGeometry x="212" y="60" width="240" height="720" as="geometry" />
        </mxCell>
        <mxCell id="GJOkn2DgcXXOF6PlL42Y-12" value="Display Current threshold" style="swimlane;fontStyle=0;childLayout=stackLayout;horizontal=1;startSize=30;horizontalStack=0;resizeParent=1;resizeParentMax=0;resizeLast=0;collapsible=1;marginBottom=0;rounded=1;labelBackgroundColor=none;fillColor=#b1ddf0;strokeColor=#10739e;" parent="GJOkn2DgcXXOF6PlL42Y-1" vertex="1">
          <mxGeometry x="29" y="45" width="180" height="90" as="geometry" />
        </mxCell>
        <mxCell id="GJOkn2DgcXXOF6PlL42Y-13" value="For: deviceID+InputID" style="text;strokeColor=none;fillColor=none;align=left;verticalAlign=middle;spacingLeft=4;spacingRight=4;overflow=hidden;points=[[0,0.5],[1,0.5]];portConstraint=eastwest;rotatable=0;rounded=1;" parent="GJOkn2DgcXXOF6PlL42Y-12" vertex="1">
          <mxGeometry y="30" width="180" height="30" as="geometry" />
        </mxCell>
        <mxCell id="GJOkn2DgcXXOF6PlL42Y-14" value="cat (*):high; psi:56; dur: 5 mins" style="text;strokeColor=none;fillColor=none;align=left;verticalAlign=middle;spacingLeft=4;spacingRight=4;overflow=hidden;points=[[0,0.5],[1,0.5]];portConstraint=eastwest;rotatable=0;rounded=1;" parent="GJOkn2DgcXXOF6PlL42Y-12" vertex="1">
          <mxGeometry y="60" width="180" height="30" as="geometry" />
        </mxCell>
        <mxCell id="GJOkn2DgcXXOF6PlL42Y-27" value="" style="endArrow=classic;html=1;rounded=0;" parent="GJOkn2DgcXXOF6PlL42Y-1" source="GJOkn2DgcXXOF6PlL42Y-5" edge="1">
          <mxGeometry width="50" height="50" relative="1" as="geometry">
            <mxPoint x="-21" y="155" as="sourcePoint" />
            <mxPoint x="29" y="105" as="targetPoint" />
          </mxGeometry>
        </mxCell>
        <mxCell id="GJOkn2DgcXXOF6PlL42Y-28" value="View thresholds&lt;br&gt;&amp;nbsp;per inputId" style="edgeLabel;html=1;align=center;verticalAlign=middle;resizable=0;points=[];" parent="GJOkn2DgcXXOF6PlL42Y-27" vertex="1" connectable="0">
          <mxGeometry x="-0.1422" y="-1" relative="1" as="geometry">
            <mxPoint as="offset" />
          </mxGeometry>
        </mxCell>
        <mxCell id="GJOkn2DgcXXOF6PlL42Y-30" value="Edit threshold" style="swimlane;fontStyle=0;childLayout=stackLayout;horizontal=1;startSize=30;horizontalStack=0;resizeParent=1;resizeParentMax=0;resizeLast=0;collapsible=1;marginBottom=0;rounded=1;labelBackgroundColor=none;fillColor=#b1ddf0;strokeColor=#10739e;" parent="GJOkn2DgcXXOF6PlL42Y-1" vertex="1">
          <mxGeometry x="26" y="225" width="196" height="120" as="geometry" />
        </mxCell>
        <mxCell id="GJOkn2DgcXXOF6PlL42Y-31" value="For: deviceID+InputID" style="text;strokeColor=none;fillColor=none;align=left;verticalAlign=middle;spacingLeft=4;spacingRight=4;overflow=hidden;points=[[0,0.5],[1,0.5]];portConstraint=eastwest;rotatable=0;rounded=1;" parent="GJOkn2DgcXXOF6PlL42Y-30" vertex="1">
          <mxGeometry y="30" width="196" height="30" as="geometry" />
        </mxCell>
        <mxCell id="GJOkn2DgcXXOF6PlL42Y-32" value="cat (*): threshold+durationÂ " style="text;strokeColor=none;fillColor=none;align=left;verticalAlign=middle;spacingLeft=4;spacingRight=4;overflow=hidden;points=[[0,0.5],[1,0.5]];portConstraint=eastwest;rotatable=0;rounded=1;" parent="GJOkn2DgcXXOF6PlL42Y-30" vertex="1">
          <mxGeometry y="60" width="196" height="30" as="geometry" />
        </mxCell>
        <mxCell id="aSXss6iqSQP3orXnk--K-1" value="upper+lower limit" style="text;strokeColor=none;fillColor=none;align=left;verticalAlign=middle;spacingLeft=4;spacingRight=4;overflow=hidden;points=[[0,0.5],[1,0.5]];portConstraint=eastwest;rotatable=0;rounded=1;" parent="GJOkn2DgcXXOF6PlL42Y-30" vertex="1">
          <mxGeometry y="90" width="196" height="30" as="geometry" />
        </mxCell>
        <mxCell id="GJOkn2DgcXXOF6PlL42Y-54" value="SUBMIT - Edit threshold" style="swimlane;fontStyle=0;childLayout=stackLayout;horizontal=1;startSize=30;horizontalStack=0;resizeParent=1;resizeParentMax=0;resizeLast=0;collapsible=1;marginBottom=0;rounded=1;labelBackgroundColor=none;fillColor=#b1ddf0;strokeColor=#10739e;" parent="GJOkn2DgcXXOF6PlL42Y-1" vertex="1">
          <mxGeometry x="22" y="396" width="196" height="90" as="geometry" />
        </mxCell>
        <mxCell id="GJOkn2DgcXXOF6PlL42Y-55" value="For: deviceID+InputID&#xa;cat (*): threshold+duration - value" style="text;strokeColor=none;fillColor=none;align=left;verticalAlign=middle;spacingLeft=4;spacingRight=4;overflow=hidden;points=[[0,0.5],[1,0.5]];portConstraint=eastwest;rotatable=0;rounded=1;" parent="GJOkn2DgcXXOF6PlL42Y-54" vertex="1">
          <mxGeometry y="30" width="196" height="30" as="geometry" />
        </mxCell>
        <mxCell id="GJOkn2DgcXXOF6PlL42Y-56" value="Response: Submitted/Failed" style="text;strokeColor=none;fillColor=none;align=left;verticalAlign=middle;spacingLeft=4;spacingRight=4;overflow=hidden;points=[[0,0.5],[1,0.5]];portConstraint=eastwest;rotatable=0;rounded=1;" parent="GJOkn2DgcXXOF6PlL42Y-54" vertex="1">
          <mxGeometry y="60" width="196" height="30" as="geometry" />
        </mxCell>
        <mxCell id="GJOkn2DgcXXOF6PlL42Y-58" value="" style="endArrow=classic;html=1;rounded=0;entryX=0.5;entryY=0;entryDx=0;entryDy=0;" parent="GJOkn2DgcXXOF6PlL42Y-1" target="GJOkn2DgcXXOF6PlL42Y-54" edge="1">
          <mxGeometry width="50" height="50" relative="1" as="geometry">
            <mxPoint x="120" y="345" as="sourcePoint" />
            <mxPoint x="41" y="285" as="targetPoint" />
          </mxGeometry>
        </mxCell>
        <mxCell id="GJOkn2DgcXXOF6PlL42Y-2" value="PPA-API Service" style="swimlane;rounded=1;dashed=1;fillColor=#b1ddf0;strokeColor=#10739e;swimlaneFillColor=#CCE5FF;gradientColor=#ffffff;" parent="1" vertex="1">
          <mxGeometry x="526" y="60" width="285" height="720" as="geometry" />
        </mxCell>
        <mxCell id="GJOkn2DgcXXOF6PlL42Y-6" value="GET device-config" style="swimlane;fontStyle=0;childLayout=stackLayout;horizontal=1;startSize=30;horizontalStack=0;resizeParent=1;resizeParentMax=0;resizeLast=0;collapsible=1;marginBottom=0;rounded=1;" parent="GJOkn2DgcXXOF6PlL42Y-2" vertex="1">
          <mxGeometry x="30" y="45" width="225" height="90" as="geometry" />
        </mxCell>
        <mxCell id="GJOkn2DgcXXOF6PlL42Y-7" value="RQ: deviceID+InputID" style="text;strokeColor=none;fillColor=none;align=left;verticalAlign=middle;spacingLeft=4;spacingRight=4;overflow=hidden;points=[[0,0.5],[1,0.5]];portConstraint=eastwest;rotatable=0;rounded=1;" parent="GJOkn2DgcXXOF6PlL42Y-6" vertex="1">
          <mxGeometry y="30" width="225" height="30" as="geometry" />
        </mxCell>
        <mxCell id="GJOkn2DgcXXOF6PlL42Y-8" value="RS: (*) cat:high; psi:56; dur: 5 mins" style="text;strokeColor=none;fillColor=none;align=left;verticalAlign=middle;spacingLeft=4;spacingRight=4;overflow=hidden;points=[[0,0.5],[1,0.5]];portConstraint=eastwest;rotatable=0;rounded=1;" parent="GJOkn2DgcXXOF6PlL42Y-6" vertex="1">
          <mxGeometry y="60" width="225" height="30" as="geometry" />
        </mxCell>
        <mxCell id="GJOkn2DgcXXOF6PlL42Y-38" value="GET device-constraint" style="swimlane;fontStyle=0;childLayout=stackLayout;horizontal=1;startSize=30;horizontalStack=0;resizeParent=1;resizeParentMax=0;resizeLast=0;collapsible=1;marginBottom=0;rounded=1;" parent="GJOkn2DgcXXOF6PlL42Y-2" vertex="1">
          <mxGeometry x="30" y="321" width="225" height="90" as="geometry" />
        </mxCell>
        <mxCell id="GJOkn2DgcXXOF6PlL42Y-39" value="RQ: deviceID+InputID" style="text;strokeColor=none;fillColor=none;align=left;verticalAlign=middle;spacingLeft=4;spacingRight=4;overflow=hidden;points=[[0,0.5],[1,0.5]];portConstraint=eastwest;rotatable=0;rounded=1;" parent="GJOkn2DgcXXOF6PlL42Y-38" vertex="1">
          <mxGeometry y="30" width="225" height="30" as="geometry" />
        </mxCell>
        <mxCell id="GJOkn2DgcXXOF6PlL42Y-40" value="RS: (*) threshold+duration - ranges" style="text;strokeColor=none;fillColor=none;align=left;verticalAlign=middle;spacingLeft=4;spacingRight=4;overflow=hidden;points=[[0,0.5],[1,0.5]];portConstraint=eastwest;rotatable=0;rounded=1;" parent="GJOkn2DgcXXOF6PlL42Y-38" vertex="1">
          <mxGeometry y="60" width="225" height="30" as="geometry" />
        </mxCell>
        <mxCell id="GJOkn2DgcXXOF6PlL42Y-61" value="POST edit-threshold" style="swimlane;fontStyle=0;childLayout=stackLayout;horizontal=1;startSize=30;horizontalStack=0;resizeParent=1;resizeParentMax=0;resizeLast=0;collapsible=1;marginBottom=0;rounded=1;" parent="GJOkn2DgcXXOF6PlL42Y-2" vertex="1">
          <mxGeometry x="28.5" y="444" width="226.5" height="120" as="geometry" />
        </mxCell>
        <mxCell id="GJOkn2DgcXXOF6PlL42Y-62" value="RQ: deviceID+InputID" style="text;strokeColor=none;fillColor=none;align=left;verticalAlign=middle;spacingLeft=4;spacingRight=4;overflow=hidden;points=[[0,0.5],[1,0.5]];portConstraint=eastwest;rotatable=0;rounded=1;" parent="GJOkn2DgcXXOF6PlL42Y-61" vertex="1">
          <mxGeometry y="30" width="226.5" height="30" as="geometry" />
        </mxCell>
        <mxCell id="GJOkn2DgcXXOF6PlL42Y-63" value="Body: cat (*): threshold+duration - value" style="text;strokeColor=none;fillColor=none;align=left;verticalAlign=middle;spacingLeft=4;spacingRight=4;overflow=hidden;points=[[0,0.5],[1,0.5]];portConstraint=eastwest;rotatable=0;rounded=1;" parent="GJOkn2DgcXXOF6PlL42Y-61" vertex="1">
          <mxGeometry y="60" width="226.5" height="30" as="geometry" />
        </mxCell>
        <mxCell id="GJOkn2DgcXXOF6PlL42Y-66" value="RS: Submitted/Failed" style="text;strokeColor=none;fillColor=none;align=left;verticalAlign=middle;spacingLeft=4;spacingRight=4;overflow=hidden;points=[[0,0.5],[1,0.5]];portConstraint=eastwest;rotatable=0;rounded=1;" parent="GJOkn2DgcXXOF6PlL42Y-61" vertex="1">
          <mxGeometry y="90" width="226.5" height="30" as="geometry" />
        </mxCell>
        <mxCell id="GJOkn2DgcXXOF6PlL42Y-4" value="RNI 4.10.x service" style="swimlane;rounded=1;dashed=1;fillColor=#f5f5f5;gradientColor=#b3b3b3;strokeColor=#666666;swimlaneFillColor=#E6E6E6;" parent="1" vertex="1">
          <mxGeometry x="1240" y="62.5" width="150" height="492.5" as="geometry" />
        </mxCell>
        <mxCell id="GJOkn2DgcXXOF6PlL42Y-19" value="GET current-config" style="text;strokeColor=#23445d;fillColor=#bac8d3;align=left;verticalAlign=middle;spacingLeft=4;spacingRight=4;overflow=hidden;points=[[0,0.5],[1,0.5]];portConstraint=eastwest;rotatable=0;rounded=1;" parent="GJOkn2DgcXXOF6PlL42Y-4" vertex="1">
          <mxGeometry x="15" y="71.5" width="120" height="32.5" as="geometry" />
        </mxCell>
        <mxCell id="GJOkn2DgcXXOF6PlL42Y-47" value="GET event-ranges" style="text;strokeColor=#23445d;fillColor=#bac8d3;align=left;verticalAlign=middle;spacingLeft=4;spacingRight=4;overflow=hidden;points=[[0,0.5],[1,0.5]];portConstraint=eastwest;rotatable=0;rounded=1;" parent="GJOkn2DgcXXOF6PlL42Y-4" vertex="1">
          <mxGeometry x="15" y="276.5" width="120" height="32.5" as="geometry" />
        </mxCell>
        <mxCell id="GJOkn2DgcXXOF6PlL42Y-71" value="POST edit-threshold" style="text;strokeColor=#23445d;fillColor=#bac8d3;align=left;verticalAlign=middle;spacingLeft=4;spacingRight=4;overflow=hidden;points=[[0,0.5],[1,0.5]];portConstraint=eastwest;rotatable=0;rounded=1;" parent="GJOkn2DgcXXOF6PlL42Y-4" vertex="1">
          <mxGeometry x="15" y="420.5" width="120" height="32.5" as="geometry" />
        </mxCell>
        <mxCell id="GJOkn2DgcXXOF6PlL42Y-5" value="PPA &lt;br&gt;User" style="shape=umlActor;verticalLabelPosition=bottom;verticalAlign=top;html=1;outlineConnect=0;rounded=1;" parent="1" vertex="1">
          <mxGeometry x="30" y="300" width="30" height="60" as="geometry" />
        </mxCell>
        <mxCell id="GJOkn2DgcXXOF6PlL42Y-21" style="edgeStyle=orthogonalEdgeStyle;rounded=0;orthogonalLoop=1;jettySize=auto;html=1;exitX=1;exitY=0.5;exitDx=0;exitDy=0;entryX=0;entryY=0.5;entryDx=0;entryDy=0;" parent="1" source="GJOkn2DgcXXOF6PlL42Y-13" target="GJOkn2DgcXXOF6PlL42Y-7" edge="1">
          <mxGeometry relative="1" as="geometry" />
        </mxCell>
        <mxCell id="GJOkn2DgcXXOF6PlL42Y-22" style="edgeStyle=orthogonalEdgeStyle;rounded=0;orthogonalLoop=1;jettySize=auto;html=1;exitX=1;exitY=0.5;exitDx=0;exitDy=0;entryX=0;entryY=0.5;entryDx=0;entryDy=0;" parent="1" source="GJOkn2DgcXXOF6PlL42Y-7" target="GJOkn2DgcXXOF6PlL42Y-17" edge="1">
          <mxGeometry relative="1" as="geometry" />
        </mxCell>
        <mxCell id="GJOkn2DgcXXOF6PlL42Y-23" style="edgeStyle=orthogonalEdgeStyle;rounded=0;orthogonalLoop=1;jettySize=auto;html=1;exitX=1;exitY=0.5;exitDx=0;exitDy=0;entryX=0;entryY=0.5;entryDx=0;entryDy=0;" parent="1" source="GJOkn2DgcXXOF6PlL42Y-17" target="GJOkn2DgcXXOF6PlL42Y-19" edge="1">
          <mxGeometry relative="1" as="geometry" />
        </mxCell>
        <mxCell id="GJOkn2DgcXXOF6PlL42Y-25" style="edgeStyle=orthogonalEdgeStyle;rounded=0;orthogonalLoop=1;jettySize=auto;html=1;exitX=0;exitY=0.5;exitDx=0;exitDy=0;entryX=1;entryY=0.5;entryDx=0;entryDy=0;" parent="1" source="GJOkn2DgcXXOF6PlL42Y-18" target="GJOkn2DgcXXOF6PlL42Y-8" edge="1">
          <mxGeometry relative="1" as="geometry" />
        </mxCell>
        <mxCell id="GJOkn2DgcXXOF6PlL42Y-26" style="edgeStyle=orthogonalEdgeStyle;rounded=0;orthogonalLoop=1;jettySize=auto;html=1;exitX=0;exitY=0.5;exitDx=0;exitDy=0;entryX=1;entryY=0.5;entryDx=0;entryDy=0;" parent="1" source="GJOkn2DgcXXOF6PlL42Y-8" target="GJOkn2DgcXXOF6PlL42Y-14" edge="1">
          <mxGeometry relative="1" as="geometry" />
        </mxCell>
        <mxCell id="GJOkn2DgcXXOF6PlL42Y-35" value="Edit threshold&lt;br&gt;per Input" style="endArrow=classic;html=1;rounded=0;entryX=0;entryY=0.5;entryDx=0;entryDy=0;" parent="1" edge="1">
          <mxGeometry x="-0.1685" width="50" height="50" relative="1" as="geometry">
            <mxPoint x="61" y="330" as="sourcePoint" />
            <mxPoint x="239" y="330" as="targetPoint" />
            <mxPoint as="offset" />
          </mxGeometry>
        </mxCell>
        <mxCell id="GJOkn2DgcXXOF6PlL42Y-92" value="" style="endArrow=classic;html=1;rounded=0;entryX=0;entryY=0.5;entryDx=0;entryDy=0;exitX=1;exitY=0.5;exitDx=0;exitDy=0;" parent="1" source="GJOkn2DgcXXOF6PlL42Y-31" target="GJOkn2DgcXXOF6PlL42Y-39" edge="1">
          <mxGeometry width="50" height="50" relative="1" as="geometry">
            <mxPoint x="720" y="455" as="sourcePoint" />
            <mxPoint x="770" y="405" as="targetPoint" />
          </mxGeometry>
        </mxCell>
        <mxCell id="GJOkn2DgcXXOF6PlL42Y-93" value="" style="endArrow=classic;html=1;rounded=0;entryX=1;entryY=0.5;entryDx=0;entryDy=0;exitX=0;exitY=0.5;exitDx=0;exitDy=0;" parent="1" source="GJOkn2DgcXXOF6PlL42Y-40" target="GJOkn2DgcXXOF6PlL42Y-32" edge="1">
          <mxGeometry width="50" height="50" relative="1" as="geometry">
            <mxPoint x="720" y="455" as="sourcePoint" />
            <mxPoint x="770" y="405" as="targetPoint" />
          </mxGeometry>
        </mxCell>
        <mxCell id="GJOkn2DgcXXOF6PlL42Y-94" value="" style="endArrow=classic;html=1;rounded=0;entryX=0;entryY=0.5;entryDx=0;entryDy=0;exitX=1;exitY=0.5;exitDx=0;exitDy=0;" parent="1" source="GJOkn2DgcXXOF6PlL42Y-39" target="GJOkn2DgcXXOF6PlL42Y-42" edge="1">
          <mxGeometry width="50" height="50" relative="1" as="geometry">
            <mxPoint x="765" y="469.25" as="sourcePoint" />
            <mxPoint x="871" y="395.25" as="targetPoint" />
          </mxGeometry>
        </mxCell>
        <mxCell id="GJOkn2DgcXXOF6PlL42Y-95" value="" style="endArrow=classic;html=1;rounded=0;entryX=1;entryY=0.5;entryDx=0;entryDy=0;exitX=0;exitY=0.5;exitDx=0;exitDy=0;" parent="1" source="GJOkn2DgcXXOF6PlL42Y-43" target="GJOkn2DgcXXOF6PlL42Y-40" edge="1">
          <mxGeometry width="50" height="50" relative="1" as="geometry">
            <mxPoint x="900" y="446" as="sourcePoint" />
            <mxPoint x="810" y="520" as="targetPoint" />
          </mxGeometry>
        </mxCell>
        <mxCell id="GJOkn2DgcXXOF6PlL42Y-109" value="" style="endArrow=classic;html=1;rounded=0;entryX=1;entryY=0.5;entryDx=0;entryDy=0;exitX=0.007;exitY=-0.173;exitDx=0;exitDy=0;exitPerimeter=0;" parent="1" source="GJOkn2DgcXXOF6PlL42Y-66" target="GJOkn2DgcXXOF6PlL42Y-56" edge="1">
          <mxGeometry width="50" height="50" relative="1" as="geometry">
            <mxPoint x="538" y="537" as="sourcePoint" />
            <mxPoint x="432" y="480" as="targetPoint" />
          </mxGeometry>
        </mxCell>
        <mxCell id="GJOkn2DgcXXOF6PlL42Y-108" value="" style="endArrow=classic;html=1;rounded=0;entryX=0;entryY=0.5;entryDx=0;entryDy=0;exitX=1;exitY=0.5;exitDx=0;exitDy=0;" parent="1" source="GJOkn2DgcXXOF6PlL42Y-55" target="GJOkn2DgcXXOF6PlL42Y-62" edge="1">
          <mxGeometry width="50" height="50" relative="1" as="geometry">
            <mxPoint x="432" y="450" as="sourcePoint" />
            <mxPoint x="538" y="507" as="targetPoint" />
          </mxGeometry>
        </mxCell>
        <mxCell id="TNVdTlEFQuvaBfnlJwtW-2" value="&lt;b&gt;1.1&lt;/b&gt;" style="ellipse;whiteSpace=wrap;html=1;gradientColor=#ffffff;fillColor=#3399FF;" parent="1" vertex="1">
          <mxGeometry x="465" y="105" width="45" height="30" as="geometry" />
        </mxCell>
        <mxCell id="TNVdTlEFQuvaBfnlJwtW-4" value="&lt;b&gt;1.3&lt;/b&gt;" style="ellipse;whiteSpace=wrap;html=1;gradientColor=#ffffff;fillColor=#3399FF;" parent="1" vertex="1">
          <mxGeometry x="465" y="425" width="45" height="30" as="geometry" />
        </mxCell>
        <mxCell id="TNVdTlEFQuvaBfnlJwtW-5" value="&lt;b&gt;1.4&lt;/b&gt;" style="ellipse;whiteSpace=wrap;html=1;gradientColor=#ffffff;fillColor=#3399FF;" parent="1" vertex="1">
          <mxGeometry x="465" y="570" width="45" height="30" as="geometry" />
        </mxCell>
        <mxCell id="GJOkn2DgcXXOF6PlL42Y-118" value="" style="endArrow=classic;html=1;rounded=0;entryX=0;entryY=0.5;entryDx=0;entryDy=0;exitX=1;exitY=0.5;exitDx=0;exitDy=0;" parent="1" source="GJOkn2DgcXXOF6PlL42Y-62" target="GJOkn2DgcXXOF6PlL42Y-69" edge="1">
          <mxGeometry width="50" height="50" relative="1" as="geometry">
            <mxPoint x="766" y="500.5" as="sourcePoint" />
            <mxPoint x="923.5" y="499.5" as="targetPoint" />
          </mxGeometry>
        </mxCell>
        <mxCell id="GJOkn2DgcXXOF6PlL42Y-119" value="" style="endArrow=classic;html=1;rounded=0;entryX=1;entryY=0.5;entryDx=0;entryDy=0;exitX=0;exitY=0.5;exitDx=0;exitDy=0;" parent="1" source="GJOkn2DgcXXOF6PlL42Y-70" target="GJOkn2DgcXXOF6PlL42Y-63" edge="1">
          <mxGeometry width="50" height="50" relative="1" as="geometry">
            <mxPoint x="923.5" y="529.5" as="sourcePoint" />
            <mxPoint x="766" y="530.5" as="targetPoint" />
          </mxGeometry>
        </mxCell>
        <mxCell id="GJOkn2DgcXXOF6PlL42Y-48" style="edgeStyle=orthogonalEdgeStyle;rounded=0;orthogonalLoop=1;jettySize=auto;html=1;exitX=1;exitY=0.5;exitDx=0;exitDy=0;entryX=0;entryY=0.5;entryDx=0;entryDy=0;" parent="1" source="GJOkn2DgcXXOF6PlL42Y-42" target="GJOkn2DgcXXOF6PlL42Y-47" edge="1">
          <mxGeometry relative="1" as="geometry">
            <mxPoint x="1142.5" y="356" as="sourcePoint" />
          </mxGeometry>
        </mxCell>
        <mxCell id="GJOkn2DgcXXOF6PlL42Y-72" style="edgeStyle=orthogonalEdgeStyle;rounded=0;orthogonalLoop=1;jettySize=auto;html=1;exitX=1;exitY=0.5;exitDx=0;exitDy=0;entryX=0;entryY=0.5;entryDx=0;entryDy=0;dashed=1;" parent="1" source="GJOkn2DgcXXOF6PlL42Y-69" target="GJOkn2DgcXXOF6PlL42Y-71" edge="1">
          <mxGeometry relative="1" as="geometry">
            <mxPoint x="1142.5" y="499" as="sourcePoint" />
          </mxGeometry>
        </mxCell>
        <mxCell id="GJOkn2DgcXXOF6PlL42Y-74" value="Store+Fwd" style="edgeLabel;html=1;align=center;verticalAlign=middle;resizable=0;points=[];" parent="GJOkn2DgcXXOF6PlL42Y-72" vertex="1" connectable="0">
          <mxGeometry x="-0.2465" relative="1" as="geometry">
            <mxPoint x="26" as="offset" />
          </mxGeometry>
        </mxCell>
        <mxCell id="GJOkn2DgcXXOF6PlL42Y-73" style="edgeStyle=orthogonalEdgeStyle;rounded=0;orthogonalLoop=1;jettySize=auto;html=1;entryX=1;entryY=0.5;entryDx=0;entryDy=0;exitX=0.452;exitY=1.083;exitDx=0;exitDy=0;exitPerimeter=0;dashed=1;" parent="1" source="GJOkn2DgcXXOF6PlL42Y-71" target="GJOkn2DgcXXOF6PlL42Y-70" edge="1">
          <mxGeometry relative="1" as="geometry">
            <mxPoint x="100" y="481.5" as="sourcePoint" />
            <mxPoint x="1142.5" y="529" as="targetPoint" />
            <Array as="points">
              <mxPoint x="1309" y="527" />
            </Array>
          </mxGeometry>
        </mxCell>
        <mxCell id="GJOkn2DgcXXOF6PlL42Y-75" value="Async" style="edgeLabel;html=1;align=center;verticalAlign=middle;resizable=0;points=[];" parent="GJOkn2DgcXXOF6PlL42Y-73" vertex="1" connectable="0">
          <mxGeometry x="0.4086" relative="1" as="geometry">
            <mxPoint x="11" as="offset" />
          </mxGeometry>
        </mxCell>
        <mxCell id="c0EEYeFtJUnjHRe3q03Y-1" style="edgeStyle=orthogonalEdgeStyle;rounded=0;orthogonalLoop=1;jettySize=auto;html=1;entryX=1;entryY=0.5;entryDx=0;entryDy=0;exitX=0.452;exitY=1.083;exitDx=0;exitDy=0;exitPerimeter=0;" parent="1" edge="1">
          <mxGeometry relative="1" as="geometry">
            <mxPoint x="1308.692" y="164.9975" as="sourcePoint" />
            <mxPoint x="1125" y="175.8" as="targetPoint" />
            <Array as="points">
              <mxPoint x="1309" y="175.8" />
            </Array>
          </mxGeometry>
        </mxCell>
        <mxCell id="c0EEYeFtJUnjHRe3q03Y-2" style="edgeStyle=orthogonalEdgeStyle;rounded=0;orthogonalLoop=1;jettySize=auto;html=1;entryX=1;entryY=0.5;entryDx=0;entryDy=0;exitX=0.452;exitY=1.083;exitDx=0;exitDy=0;exitPerimeter=0;" parent="1" edge="1">
          <mxGeometry relative="1" as="geometry">
            <mxPoint x="1308.692" y="374.9975" as="sourcePoint" />
            <mxPoint x="1125" y="385.8" as="targetPoint" />
            <Array as="points">
              <mxPoint x="1309" y="385.8" />
            </Array>
          </mxGeometry>
        </mxCell>
      </root>
    </mxGraphModel>
  </diagram>
</mxfile>
